<svg width="33" height="33" viewBox="0 0 33 33" fill="none" xmlns="http://www.w3.org/2000/svg">
<path d="M13.0625 26.8125V24.75H6.1875C5.43125 24.75 4.74375 24.4475 4.24875 23.9387C3.74 23.4437 3.4375 22.7562 3.4375 22C3.4375 20.5838 4.5375 19.4013 5.92625 19.2638C6.00875 19.25 6.09125 19.25 6.1875 19.25H26.8125C26.9088 19.25 26.9913 19.25 27.0738 19.2638C27.7338 19.3188 28.3113 19.6075 28.7512 20.0613C29.315 20.6113 29.6175 21.395 29.5487 22.2475C29.425 23.6913 28.1187 24.75 26.6612 24.75H19.9375V26.8125C19.9375 28.71 18.3975 30.25 16.5 30.25C14.6025 30.25 13.0625 28.71 13.0625 26.8125Z" fill="#44A887"/>
<path d="M23.6363 2.75H18.2188C17.8338 2.75 17.5313 3.0525 17.5313 3.4375V5.5C17.5313 6.06375 17.0638 6.53125 16.5001 6.53125C16.3763 6.53125 16.2663 6.50375 16.1563 6.4625C15.7576 6.325 15.4688 5.94 15.4688 5.5V3.4375C15.4688 3.0525 15.1663 2.75 14.7813 2.75H12.7051C12.3201 2.75 12.0176 3.0525 12.0176 3.4375V9.625C12.0176 10.1887 11.5501 10.6562 10.9863 10.6562C10.4226 10.6562 9.95506 10.1887 9.95506 9.625V6.53125V3.4375C9.95506 3.06625 9.68006 2.7775 9.30881 2.75H9.26756C6.87506 2.805 5.01881 4.88125 5.26631 7.2875L5.77506 16.5688C5.81631 17.2975 6.42131 17.875 7.15006 17.875H25.8501C26.5788 17.875 27.1838 17.2975 27.2251 16.5688L27.7338 7.2875C27.9813 4.85375 26.0701 2.75 23.6363 2.75Z" fill="#44A887"/>
</svg>
