<svg width="24" height="44" viewBox="0 0 24 44" fill="none" xmlns="http://www.w3.org/2000/svg">
<g clip-path="url(#clip0_1660_36044)">
<path d="M12.0776 0.633789V43.3667" stroke="#2C1414" stroke-linecap="round" stroke-linejoin="round"/>
<path d="M0.633789 24.3838C0.633789 24.3838 2.31182 31.0633 11.884 32.1567" stroke="#2C1414" stroke-linecap="round" stroke-linejoin="round"/>
<path d="M12.2241 23.1599C12.3599 22.8196 20.0984 17.3366 18.7408 11.4951" stroke="#2C1414" stroke-linecap="round" stroke-linejoin="round"/>
<path d="M15.0393 12.0811C15.0393 12.0811 13.4102 16.9124 14.9362 19.5028" stroke="#2C1414" stroke-linecap="round" stroke-linejoin="round"/>
<path d="M13.4102 22.3057C13.4102 22.3057 18.6325 22.8487 20.2273 20.3145" stroke="#2C1414" stroke-linecap="round" stroke-linejoin="round"/>
<path d="M7.66264 8.36719C7.66264 8.36719 6.89874 15.693 11.884 17.2696" stroke="#2C1414" stroke-linecap="round" stroke-linejoin="round"/>
<path d="M22.8697 23.9854C22.8697 23.9854 20.7554 29.5281 12.2729 31.045" stroke="#2C1414" stroke-linecap="round" stroke-linejoin="round"/>
<path d="M6.24896 18.4082C6.24896 18.4082 7.93966 26.3169 6.10596 30.4079" stroke="#2C1414" stroke-linecap="round" stroke-linejoin="round"/>
<path d="M9.71338 4.00977C9.71338 4.00977 10.7307 6.31594 11.8168 6.99294" stroke="#2C1414" stroke-linecap="round" stroke-linejoin="round"/>
<path d="M12.0884 8.82475C12.0884 8.82475 15.1168 6.71046 14.8688 4.55273" stroke="#2C1414" stroke-linecap="round" stroke-linejoin="round"/>
<path d="M3.80176 22.2041C3.80176 22.2041 3.81986 25.1275 6.80303 26.172" stroke="#2C1414" stroke-linecap="round" stroke-linejoin="round"/>
<path d="M17.5826 24.9678C17.5826 24.9678 15.548 27.8767 15.6838 30.1232" stroke="#2C1414" stroke-linecap="round" stroke-linejoin="round"/>
<path d="M6.79736 29.1727C6.79736 29.1727 9.84932 29.037 9.98509 25.5107" stroke="#2C1414" stroke-linecap="round" stroke-linejoin="round"/>
<path d="M4.70654 11.5723C4.70654 11.5723 5.36726 13.6395 8.41921 14.5735" stroke="#2C1414" stroke-linecap="round" stroke-linejoin="round"/>
</g>
<defs>
<clipPath id="clip0_1660_36044">
<rect width="23.5034" height="44" fill="white"/>
</clipPath>
</defs>
</svg>
