<svg width="32" height="44" viewBox="0 0 32 44" fill="none" xmlns="http://www.w3.org/2000/svg">
<g clip-path="url(#clip0_1660_36047)">
<path d="M6.60915 14.2359C3.24483 12.7116 1.17395 10.887 1.59644 9.82622C1.99468 8.82448 4.90534 9.01719 8.13807 10.0693" stroke="#2C1414" stroke-linecap="round" stroke-linejoin="round"/>
<path d="M7.13705 18.7253C3.55283 18.9527 0.730477 18.3398 0.611003 17.227C0.467288 15.9822 3.73984 14.5829 7.91969 14.1037C9.16974 13.9546 10.4299 13.9088 11.6874 13.9666" stroke="#2C1414" stroke-linecap="round" stroke-linejoin="round"/>
<path d="M15.8587 16.1663C15.6527 17.4667 13.6407 19.7184 10.7837 21.7097C7.33109 24.1195 3.95465 25.2393 3.24127 24.2115C2.52789 23.1837 4.74768 20.392 8.2003 17.9875C10.2504 16.557 12.2728 15.5813 13.7273 15.2393" stroke="#2C1414" stroke-linecap="round" stroke-linejoin="round"/>
<path d="M15.7432 15.4852C16.7006 14.6811 15.2875 11.4086 12.5869 8.17589C9.88636 4.94318 6.92096 2.97438 5.96354 3.77846C5.00612 4.58254 6.41924 7.85501 9.11982 11.0877C11.8204 14.3204 14.7858 16.2892 15.7432 15.4852Z" stroke="#2C1414" stroke-linecap="round" stroke-linejoin="round"/>
<path d="M15.978 6.35035C15.0794 2.76181 13.6786 0.392018 12.5548 0.62292C11.5021 0.839934 11.1696 3.61077 11.6371 6.98577" stroke="#2C1414" stroke-linecap="round" stroke-linejoin="round"/>
<path d="M20.3226 7.65461C21.1728 4.15634 21.0655 1.26919 19.9954 0.94801C18.7989 0.590371 16.851 3.57475 15.6458 7.61468C15.2805 8.82286 15.0147 10.0591 14.8511 11.3109" stroke="#2C1414" stroke-linecap="round" stroke-linejoin="round"/>
<path d="M16.276 15.8137C17.5902 15.838 20.1528 14.2512 22.6116 11.7772C25.5811 8.79285 27.2745 5.6557 26.3897 4.77028C25.5049 3.88486 22.3796 5.58799 19.4083 8.57236C17.6473 10.3449 16.5253 11.9474 15.9297 13.3224" stroke="#2C1414" stroke-linecap="round" stroke-linejoin="round"/>
<path d="M30.8208 24C30.8208 24 22.0732 24.8108 20.9668 34.4566L21.3131 34.3559C30.8987 32.5833 30.8208 24 30.8208 24Z" stroke="#2C1414" stroke-linecap="round" stroke-linejoin="round"/>
<path d="M7.73633 28.9428C7.73633 28.9428 16.1289 26.3386 20.8282 34.83L20.4819 34.8682C10.9396 36.9046 7.73633 28.9428 7.73633 28.9428Z" stroke="#2C1414" stroke-linecap="round" stroke-linejoin="round"/>
<path d="M16.0819 15.7979C15.9434 16.0739 20.9544 16.7614 20.9544 29.0808V43.3951" stroke="#2C1414" stroke-linecap="round" stroke-linejoin="round"/>
</g>
<defs>
<clipPath id="clip0_1660_36047">
<rect width="31.4286" height="44" fill="white"/>
</clipPath>
</defs>
</svg>
