<svg width="44" height="44" viewBox="0 0 44 44" fill="none" xmlns="http://www.w3.org/2000/svg">
<path d="M13.6553 22.8282C13.6553 22.8282 21.2415 21.3649 21.2415 31.8733V39.4484" stroke="#2C1414" stroke-linecap="round" stroke-linejoin="round"/>
<path d="M21.2412 39.4487V29.63C21.2412 24.5826 22.6455 21.3964 25.793 19.7246" stroke="#2C1414" stroke-linecap="round" stroke-linejoin="round"/>
<path d="M36.742 9.61127C32.2953 7.74922 30.1119 10.2969 30.1119 10.2969C29.2463 11.2054 28.9483 12.3269 29.4462 12.8013C29.944 13.2756 31.1395 13.0093 32.0052 12.1008C32.0052 12.1008 35.2506 8.24687 32.2066 5.34665C31.6935 4.85942 31.1865 4.41506 30.6952 4.93072L25.9427 9.91878C23.3046 12.6876 23.3632 17.0919 26.1278 19.7276L27.2954 20.84C30.0642 23.4781 34.4636 23.3196 37.1017 20.5508L41.8542 15.5627C42.3455 15.047 41.8771 14.562 41.3615 14.0707C38.3175 11.1705 34.625 14.5985 34.625 14.5985C33.7593 15.507 33.5511 16.714 34.049 17.1883C34.5469 17.6627 35.6526 17.3109 36.5183 16.4023C36.5183 16.4023 38.9599 14.1007 36.8826 9.74684L36.742 9.61127Z" stroke="#2C1414" stroke-linecap="round" stroke-linejoin="round"/>
<path d="M4.80796 19.9064C2.82906 20.0843 1.71925 22.0001 1.92155 24.2211C2.1408 26.6335 3.56027 28.1281 5.53804 27.9501L5.86918 27.9208C5.86918 27.9208 13.6898 27.0097 13.3655 23.4383L13.335 23.1151C12.9959 19.4063 5.14814 19.8647 5.14814 19.8647L4.80796 19.9064Z" stroke="#2C1414" stroke-linecap="round" stroke-linejoin="round"/>
<path d="M13.4503 23.8037C13.4503 23.8037 14.1171 24.2621 14.3058 26.3423C14.6392 30.006 10.5368 32.0783 8.05833 31.8452C5.5799 31.6121 5.53809 27.9506 5.53809 27.9506" stroke="#2C1414" stroke-linecap="round" stroke-linejoin="round"/>
<path d="M4.77977 19.6236C4.77977 19.6236 4.16271 16.0196 6.55977 15.3438C8.95683 14.6681 13.3644 15.9745 13.6978 19.6394C13.8866 21.7184 13.3136 22.2895 13.3136 22.2895" stroke="#2C1414" stroke-linecap="round" stroke-linejoin="round"/>
<path d="M30.538 29.2817C30.538 29.2817 23.8821 28.0999 21.2412 34.6362L21.5176 34.6349C28.9779 35.3106 30.538 29.2817 30.538 29.2817Z" stroke="#2C1414" stroke-linecap="round" stroke-linejoin="round"/>
</svg>
