<svg width="44" height="44" viewBox="0 0 44 44" fill="none" xmlns="http://www.w3.org/2000/svg">
<path d="M21.8498 1.83301C15.0845 4.41546 15.3498 9.4486 15.3498 9.4486C15.3498 11.3336 16.1878 12.862 17.2208 12.862C18.2537 12.862 19.2779 11.3336 19.2779 9.4486C19.2779 9.4486 18.8142 1.89449 12.4986 1.89449C11.4357 1.89625 10.4238 1.93841 10.4238 3.00829V13.3574C10.4238 19.102 15.0512 23.8313 20.7888 23.833H23.2113C28.956 23.833 33.5763 19.102 33.5763 13.3574V3.00829C33.5763 1.93841 32.5644 1.89625 31.4945 1.89625C25.1789 1.89625 24.7151 9.45035 24.7151 9.45035C24.7151 11.3354 25.7393 12.8638 26.7723 12.8638C27.8053 12.8638 28.6433 11.3354 28.6433 9.45035C28.6433 9.45035 28.9138 4.41721 22.1432 1.83476L21.8498 1.83301Z" stroke="#2C1414" stroke-linecap="round" stroke-linejoin="round"/>
<path d="M22 23.833L22 40.333" stroke="#2C1414" stroke-linecap="round"/>
<path d="M33.0189 26.0602C33.3966 25.6825 33.7687 26.0249 34.1446 26.3995L35.3621 31.8887L40.8507 33.1068C41.2284 33.4845 41.5708 33.8567 41.193 34.2344L37.5392 37.8882C35.511 39.9164 32.2095 39.9555 30.1813 37.9273L29.326 37.072C27.3009 35.0457 27.3369 31.7422 29.365 29.7141L33.0189 26.0602Z" stroke="#2C1414" stroke-linecap="round" stroke-linejoin="round"/>
<path d="M2.22673 34.2341C1.849 33.8563 2.19138 33.4842 2.566 33.1083L8.05521 31.8909L9.27328 26.4023C9.65101 26.0245 10.0232 25.6822 10.4009 26.0599L14.0547 29.7137C16.0829 31.7419 16.122 35.0435 14.0938 37.0717L13.2385 37.927C11.2122 39.9521 7.90875 39.9161 5.88057 37.8879L2.22673 34.2341Z" stroke="#2C1414" stroke-linecap="round" stroke-linejoin="round"/>
</svg>
