<svg width="44" height="44" viewBox="0 0 44 44" fill="none" xmlns="http://www.w3.org/2000/svg">
<path d="M3.6665 40.333H40.3332" stroke="#2C1414" stroke-width="1.5" stroke-miterlimit="10" stroke-linecap="round" stroke-linejoin="round"/>
<path d="M27.5184 40.3147L5.51835 40.3514L5.5 12.9614C5.5 11.7331 6.12336 10.5963 7.13169 9.91802L14.465 5.02305C15.6934 4.19805 17.3066 4.19805 18.535 5.02305L25.8683 9.91802C26.895 10.5963 27.5 11.7331 27.5 12.9614L27.5184 40.3147Z" stroke="#2C1414" stroke-width="1.5" stroke-miterlimit="10" stroke-linecap="round" stroke-linejoin="round"/>
<path d="M36.6299 40.3517V33" stroke="#2C1414" stroke-width="1.5" stroke-miterlimit="10" stroke-linecap="round" stroke-linejoin="round"/>
<path d="M36.6667 22C34.65 22 33 23.65 33 25.6667V29.3333C33 31.35 34.65 33 36.6667 33C38.6833 33 40.3333 31.35 40.3333 29.3333V25.6667C40.3333 23.65 38.6833 22 36.6667 22Z" stroke="#2C1414" stroke-width="1.5" stroke-miterlimit="10" stroke-linecap="round" stroke-linejoin="round"/>
<path d="M5.5 25.667H27.5" stroke="#2C1414" stroke-width="1.5" stroke-miterlimit="10" stroke-linecap="round" stroke-linejoin="round"/>
<path d="M16.5 40.333V33.458" stroke="#2C1414" stroke-width="1.5" stroke-miterlimit="10" stroke-linecap="round" stroke-linejoin="round"/>
<path d="M16.5 19.25C18.0188 19.25 19.25 18.0188 19.25 16.5C19.25 14.9812 18.0188 13.75 16.5 13.75C14.9812 13.75 13.75 14.9812 13.75 16.5C13.75 18.0188 14.9812 19.25 16.5 19.25Z" stroke="#2C1414" stroke-width="1.5" stroke-miterlimit="10" stroke-linecap="round" stroke-linejoin="round"/>
</svg>
