<svg width="44" height="44" viewBox="0 0 44 44" fill="none" xmlns="http://www.w3.org/2000/svg">
<path d="M3.6665 40.333H40.3332" stroke="#2C1414" stroke-width="1.5" stroke-miterlimit="10" stroke-linecap="round" stroke-linejoin="round"/>
<path d="M5.4082 40.3337L5.49987 18.2786C5.49987 17.1603 6.03154 16.097 6.91154 15.4004L19.7449 5.40867C21.0649 4.38201 22.9165 4.38201 24.2549 5.40867L37.0882 15.382C37.9865 16.0787 38.4999 17.1419 38.4999 18.2786V40.3337" stroke="#2C1414" stroke-width="1.5" stroke-miterlimit="10" stroke-linejoin="round"/>
<path d="M23.8332 31.167H20.1665C18.6448 31.167 17.4165 32.3953 17.4165 33.917V40.3337H26.5832V33.917C26.5832 32.3953 25.3548 31.167 23.8332 31.167Z" stroke="#2C1414" stroke-width="1.5" stroke-miterlimit="10" stroke-linejoin="round"/>
<path d="M17.4165 25.2087H13.7498C12.7415 25.2087 11.9165 24.3837 11.9165 23.3753V20.6253C11.9165 19.617 12.7415 18.792 13.7498 18.792H17.4165C18.4248 18.792 19.2498 19.617 19.2498 20.6253V23.3753C19.2498 24.3837 18.4248 25.2087 17.4165 25.2087Z" stroke="#2C1414" stroke-width="1.5" stroke-miterlimit="10" stroke-linejoin="round"/>
<path d="M30.25 25.2087H26.5833C25.575 25.2087 24.75 24.3837 24.75 23.3753V20.6253C24.75 19.617 25.575 18.792 26.5833 18.792H30.25C31.2583 18.792 32.0833 19.617 32.0833 20.6253V23.3753C32.0833 24.3837 31.2583 25.2087 30.25 25.2087Z" stroke="#2C1414" stroke-width="1.5" stroke-miterlimit="10" stroke-linejoin="round"/>
<path d="M34.8331 12.833L34.7781 7.33301H26.7114" stroke="#2C1414" stroke-width="1.5" stroke-miterlimit="10" stroke-linecap="round" stroke-linejoin="round"/>
</svg>
