<svg width="44" height="44" viewBox="0 0 44 44" fill="none" xmlns="http://www.w3.org/2000/svg">
<path d="M23.8332 40.3337H9.1665C5.49984 40.3337 3.6665 38.5003 3.6665 34.8337V20.167C3.6665 16.5003 5.49984 14.667 9.1665 14.667H18.3332V34.8337C18.3332 38.5003 20.1665 40.3337 23.8332 40.3337Z" stroke="#2C1414" stroke-width="1.5" stroke-miterlimit="10" stroke-linecap="round" stroke-linejoin="round"/>
<path d="M18.5348 7.33301C18.3881 7.88301 18.3332 8.48801 18.3332 9.16634V14.6663H9.1665V10.9997C9.1665 8.98301 10.8165 7.33301 12.8332 7.33301H18.5348Z" stroke="#2C1414" stroke-width="1.5" stroke-miterlimit="10" stroke-linecap="round" stroke-linejoin="round"/>
<path d="M25.6665 14.667V23.8337" stroke="#2C1414" stroke-width="1.5" stroke-miterlimit="10" stroke-linecap="round" stroke-linejoin="round"/>
<path d="M33 14.667V23.8337" stroke="#2C1414" stroke-width="1.5" stroke-miterlimit="10" stroke-linecap="round" stroke-linejoin="round"/>
<path d="M31.1665 31.167H27.4998C26.4915 31.167 25.6665 31.992 25.6665 33.0003V40.3337H32.9998V33.0003C32.9998 31.992 32.1748 31.167 31.1665 31.167Z" stroke="#2C1414" stroke-width="1.5" stroke-miterlimit="10" stroke-linecap="round" stroke-linejoin="round"/>
<path d="M11 23.833V31.1663" stroke="#2C1414" stroke-width="1.5" stroke-miterlimit="10" stroke-linecap="round" stroke-linejoin="round"/>
<path d="M18.3335 34.8337V9.16699C18.3335 5.50033 20.1668 3.66699 23.8335 3.66699H34.8335C38.5002 3.66699 40.3335 5.50033 40.3335 9.16699V34.8337C40.3335 38.5003 38.5002 40.3337 34.8335 40.3337H23.8335C20.1668 40.3337 18.3335 38.5003 18.3335 34.8337Z" stroke="#2C1414" stroke-width="1.5" stroke-miterlimit="10" stroke-linecap="round" stroke-linejoin="round"/>
</svg>
