<svg width="44" height="44" viewBox="0 0 44 44" fill="none" xmlns="http://www.w3.org/2000/svg">
<path d="M12.2832 33.0003H7.60822C4.98655 33.0003 3.6665 31.6803 3.6665 29.0586V7.6087C3.6665 4.98704 4.98655 3.66699 7.60822 3.66699H15.4915C18.1132 3.66699 19.4331 4.98704 19.4331 7.6087V11.0003" stroke="#2C1414" stroke-width="1.5" stroke-miterlimit="10" stroke-linecap="round" stroke-linejoin="round"/>
<path d="M31.8448 15.4366V35.8967C31.8448 38.8484 30.3782 40.3333 27.4266 40.3333H16.7198C13.7682 40.3333 12.2832 38.8484 12.2832 35.8967V15.4366C12.2832 12.485 13.7682 11 16.7198 11H27.4266C30.3782 11 31.8448 12.485 31.8448 15.4366Z" stroke="#2C1414" stroke-width="1.5" stroke-miterlimit="10" stroke-linecap="round" stroke-linejoin="round"/>
<path d="M24.5669 11.0003V7.6087C24.5669 4.98704 25.8868 3.66699 28.5085 3.66699H36.3918C39.0135 3.66699 40.3335 4.98704 40.3335 7.6087V29.0586C40.3335 31.6803 39.0135 33.0003 36.3918 33.0003H31.8452" stroke="#2C1414" stroke-width="1.5" stroke-miterlimit="10" stroke-linecap="round" stroke-linejoin="round"/>
<path d="M18.3335 20.167H25.6668" stroke="#2C1414" stroke-width="1.5" stroke-miterlimit="10" stroke-linecap="round" stroke-linejoin="round"/>
<path d="M18.3335 25.667H25.6668" stroke="#2C1414" stroke-width="1.5" stroke-miterlimit="10" stroke-linecap="round" stroke-linejoin="round"/>
<path d="M22 40.333V34.833" stroke="#2C1414" stroke-width="1.5" stroke-miterlimit="10" stroke-linecap="round" stroke-linejoin="round"/>
</svg>
