<svg width="45" height="43" viewBox="0 0 45 43" fill="none" xmlns="http://www.w3.org/2000/svg">
<path d="M0.188783 3.80796C0.0196216 4.02623 0.0594269 4.3403 0.277691 4.50946L3.8345 7.2661C4.05277 7.43526 4.36684 7.39546 4.536 7.1772C4.70516 6.95893 4.66535 6.64486 4.44709 6.4757L1.28548 4.02535L3.73583 0.863739C3.90499 0.645476 3.86519 0.331405 3.64692 0.162244C3.42866 -0.00691734 3.11459 0.0328879 2.94543 0.251152L0.188783 3.80796ZM44.8068 42.8614L44.0524 36.909L43.0603 37.0348L43.8147 42.9872L44.8068 42.8614ZM1.01715 3.55536L0.521117 3.61823L0.646852 4.61029L1.14288 4.54742L1.01715 3.55536ZM44.0524 36.909C41.3789 15.8148 22.1114 0.881874 1.01715 3.55536L1.14288 4.54742C21.6892 1.94338 40.4563 16.4885 43.0603 37.0348L44.0524 36.909Z" fill="#00174B"/>
</svg>
