<svg width="23" height="23" viewBox="0 0 23 23" fill="none" xmlns="http://www.w3.org/2000/svg">
<path d="M18.8345 7.28277L8.4912 2.11111C1.54329 -1.36889 -1.30838 1.48277 2.17162 8.43069L3.22287 10.5332C3.52495 11.1494 3.52495 11.8624 3.22287 12.4786L2.17162 14.569C-1.30838 21.5169 1.5312 24.3686 8.4912 20.8886L18.8345 15.7169C23.4745 13.3969 23.4745 9.60277 18.8345 7.28277ZM14.9316 12.4061H8.40662C7.9112 12.4061 7.50037 11.9953 7.50037 11.4999C7.50037 11.0044 7.9112 10.5936 8.40662 10.5936H14.9316C15.427 10.5936 15.8379 11.0044 15.8379 11.4999C15.8379 11.9953 15.427 12.4061 14.9316 12.4061Z" fill="#0669F7"/>
</svg>
