<svg width="105" height="60" viewBox="0 0 105 60" fill="none" xmlns="http://www.w3.org/2000/svg">
<g opacity="0.14">
<path d="M61.9183 25.4881C61.1316 25.3023 60.3317 25.6575 60.0231 26.3579C59.9368 26.4807 55.0558 40.4781 35.9899 65.7886C35.4722 66.5255 35.6183 67.3619 36.3552 67.8796C36.9693 68.3111 37.9285 68.2512 38.4462 67.5143C57.771 41.8353 62.7749 27.9243 62.9972 27.3467C63.0967 26.6829 62.6186 25.7967 61.9183 25.4881Z" fill="#2D67EE"/>
<path d="M100.94 35.4779C104.41 19.5721 97.9827 3.133 84.7184 -6.18581C80.297 -9.29208 75.3944 -11.4523 70.1334 -12.5803C67.2324 -13.1509 64.2451 -13.5987 61.4172 -13.7511C60.5442 -13.814 59.9037 -13.1634 59.8407 -12.2905C59.7777 -11.4175 60.4284 -10.777 61.3013 -10.714C64.0064 -10.6479 66.6618 -10.2499 69.3537 -9.64278C74.369 -8.68738 78.8169 -6.66316 82.9927 -3.72946C95.3973 4.98536 101.274 20.1201 98.0391 34.9073C96.6391 41.0777 91.6181 50.5743 88.8306 55.5865C88.522 56.2869 88.6681 57.1233 89.2822 57.5548L89.405 57.641C90.1054 57.9497 91.0646 57.8898 91.4595 57.0666C95.0734 50.6171 99.6629 41.7346 100.94 35.4779Z" fill="#2D67EE"/>
<path d="M53.6304 -10.2342C54.4668 -10.3803 54.9846 -11.1172 54.8384 -11.9536C54.6923 -12.79 53.9554 -13.3077 53.119 -13.1616C41.9137 -11.3117 26.8621 -3.72587 18.5071 21.2218C18.2848 21.7993 18.5172 22.5129 19.1313 22.9443C19.2541 23.0306 19.3769 23.1169 19.4997 23.2032C20.2864 23.389 21.0862 23.0337 21.3949 22.3334C27.5632 3.37041 38.6613 -7.72667 53.6304 -10.2342Z" fill="#2D67EE"/>
<path d="M80.4012 1.78793C76.6801 -1.00974 72.687 -2.89792 68.0899 -3.92639C52.516 -7.34683 36.8107 1.43064 31.5713 16.4603C31.0769 17.9473 30.4962 19.5572 29.6699 20.9945C28.0903 24.2872 24.1212 29.9368 17.9949 38.6569C17.4772 39.3938 17.6234 40.2302 18.3603 40.7479C19.0972 41.2656 19.9336 41.1195 20.4513 40.3826C26.9227 31.1713 30.633 25.8901 32.3851 22.3517C33.1749 20.7053 33.8419 18.9727 34.3363 17.4856C39.0813 3.943 53.3097 -4.03771 67.433 -0.90257C71.4526 -0.0964303 75.2366 1.82829 78.5527 4.15799C87.0139 10.6527 91.6124 25.2565 88.3475 36.1702C85.577 45.5969 76.4307 58.6156 67.988 70.1107C67.4703 70.8476 67.6164 71.684 68.3533 72.2017C68.9674 72.6331 69.9266 72.5733 70.4443 71.8364C79.1825 60.1819 88.3785 46.8313 91.285 36.9499C94.8718 24.7948 89.9678 9.05921 80.4012 1.78793Z" fill="#2D67EE"/>
<path d="M74.3662 8.5531C73.0152 7.60396 71.5779 6.77764 70.1772 6.16043C69.4768 5.85182 68.4678 6.24358 68.1592 6.94395C67.8506 7.64433 68.1196 8.56703 68.9428 8.96192C70.2207 9.49285 71.4123 10.1466 72.6405 11.0095C79.027 15.4963 82.1246 23.359 80.5621 31.0663C78.5914 40.1377 70.8125 51.7324 56.27 70.8655C55.7523 71.6024 55.8984 72.4388 56.6353 72.9565C57.2494 73.3879 58.2086 73.3281 58.7263 72.5912C73.8729 52.5983 81.4792 41.2494 83.5494 31.5141C85.2612 22.8111 81.7353 13.7302 74.3662 8.5531Z" fill="#2D67EE"/>
<path d="M61.4464 7.36414C62.3193 7.42711 62.9599 6.77649 62.9 5.81726C62.963 4.94432 62.3124 4.30379 61.3531 4.36363C51.9832 4.38452 43.1184 10.9972 39.548 20.7791C39.4617 20.9019 35.6558 31.8024 25.7329 45.9264C25.2152 46.6634 25.3614 47.4998 26.0983 48.0175C26.8352 48.5352 27.6716 48.3891 28.1893 47.6522C38.371 33.1597 42.2997 22.3455 42.4358 21.8907C45.6478 13.1411 53.2813 7.49775 61.4464 7.36414Z" fill="#2D67EE"/>
<path d="M55.4611 61.3084C55.9788 60.5715 55.8327 59.7351 55.0958 59.2173C54.4817 58.7859 53.5225 58.8458 53.0048 59.5827C52.3145 60.5652 51.4516 61.7934 50.4162 63.2672C48.9494 65.3551 47.3465 67.8977 46.1882 69.2853C45.6705 70.0222 45.8166 70.8586 46.5535 71.3763C47.1676 71.8077 48.1269 71.7479 48.6446 71.011C49.7663 69.4143 51.492 66.958 53.0451 64.7473C53.908 63.5191 54.8571 62.1681 55.4611 61.3084Z" fill="#2D67EE"/>
<path d="M68.3279 17.1509C66.9769 16.2018 65.5762 15.5845 64.0028 15.213C57.8324 13.8129 51.7023 17.5775 49.7978 23.9438C48.7957 27.4589 39.1784 42.7147 28.9105 57.33C28.3927 58.0669 28.5389 58.9033 29.2758 59.421C30.0127 59.9387 30.8491 59.7926 31.3668 59.0557C40.5993 45.9142 51.3384 29.0618 52.649 24.8463C54.0591 19.967 58.7488 17.2083 63.346 18.2368C64.4645 18.4723 65.6196 18.917 66.6022 19.6072C69.5498 21.6781 71.0438 25.2958 70.1646 28.8972C68.7016 35.9406 62.4128 46.1974 57.4814 53.739C57.0499 54.3531 57.2326 55.3986 57.8467 55.8301C58.5836 56.3478 59.5063 56.0788 59.9377 55.4647C65.0783 47.8866 71.5031 37.175 73.1021 29.6769C74.1803 24.7478 72.2581 19.912 68.3279 17.1509Z" fill="#2D67EE"/>
</g>
<mask id="mask0_812_66607" style="mask-type:alpha" maskUnits="userSpaceOnUse" x="17" y="-14" width="85" height="88">
<path d="M61.9183 25.4881C61.1316 25.3023 60.3317 25.6575 60.0231 26.3579C59.9368 26.4807 55.0558 40.4781 35.9899 65.7886C35.4722 66.5255 35.6183 67.3619 36.3552 67.8796C36.9693 68.3111 37.9285 68.2512 38.4462 67.5143C57.771 41.8353 62.7749 27.9243 62.9972 27.3467C63.0967 26.6829 62.6186 25.7967 61.9183 25.4881Z" fill="#707FA4"/>
<path d="M100.94 35.4779C104.41 19.5721 97.9827 3.133 84.7184 -6.18581C80.297 -9.29208 75.3944 -11.4523 70.1334 -12.5803C67.2324 -13.1509 64.2451 -13.5987 61.4172 -13.7511C60.5442 -13.814 59.9037 -13.1634 59.8407 -12.2905C59.7777 -11.4175 60.4284 -10.777 61.3013 -10.714C64.0064 -10.6479 66.6618 -10.2499 69.3537 -9.64278C74.369 -8.68738 78.8169 -6.66316 82.9927 -3.72946C95.3973 4.98536 101.274 20.1201 98.0391 34.9073C96.6391 41.0777 91.6181 50.5743 88.8306 55.5865C88.522 56.2869 88.6681 57.1233 89.2822 57.5548L89.405 57.641C90.1054 57.9497 91.0646 57.8898 91.4595 57.0666C95.0734 50.6171 99.6629 41.7346 100.94 35.4779Z" fill="#707FA4"/>
<path d="M53.6304 -10.2342C54.4668 -10.3803 54.9846 -11.1172 54.8384 -11.9536C54.6923 -12.79 53.9554 -13.3077 53.119 -13.1616C41.9137 -11.3117 26.8621 -3.72587 18.5071 21.2218C18.2848 21.7993 18.5172 22.5129 19.1313 22.9443C19.2541 23.0306 19.3769 23.1169 19.4997 23.2032C20.2864 23.389 21.0862 23.0337 21.3949 22.3334C27.5632 3.37041 38.6613 -7.72667 53.6304 -10.2342Z" fill="#707FA4"/>
<path d="M80.4012 1.78793C76.6801 -1.00974 72.687 -2.89792 68.0899 -3.92639C52.516 -7.34683 36.8107 1.43064 31.5713 16.4603C31.0769 17.9473 30.4962 19.5572 29.6699 20.9945C28.0903 24.2872 24.1212 29.9368 17.9949 38.6569C17.4772 39.3938 17.6234 40.2302 18.3603 40.7479C19.0972 41.2656 19.9336 41.1195 20.4513 40.3826C26.9227 31.1713 30.633 25.8901 32.3851 22.3517C33.1749 20.7053 33.8419 18.9727 34.3363 17.4856C39.0813 3.943 53.3097 -4.03771 67.433 -0.90257C71.4526 -0.0964303 75.2366 1.82829 78.5527 4.15799C87.0139 10.6527 91.6124 25.2565 88.3475 36.1702C85.577 45.5969 76.4307 58.6156 67.988 70.1107C67.4703 70.8476 67.6164 71.684 68.3533 72.2017C68.9674 72.6331 69.9266 72.5733 70.4443 71.8364C79.1825 60.1819 88.3785 46.8313 91.285 36.9499C94.8718 24.7948 89.9678 9.05921 80.4012 1.78793Z" fill="#707FA4"/>
<path d="M74.3662 8.5531C73.0152 7.60396 71.5779 6.77764 70.1772 6.16043C69.4768 5.85182 68.4678 6.24358 68.1592 6.94395C67.8506 7.64433 68.1196 8.56703 68.9428 8.96192C70.2207 9.49285 71.4123 10.1466 72.6405 11.0095C79.027 15.4963 82.1246 23.359 80.5621 31.0663C78.5914 40.1377 70.8125 51.7324 56.27 70.8655C55.7523 71.6024 55.8984 72.4388 56.6353 72.9565C57.2494 73.3879 58.2086 73.3281 58.7263 72.5912C73.8729 52.5983 81.4792 41.2494 83.5494 31.5141C85.2612 22.8111 81.7353 13.7302 74.3662 8.5531Z" fill="#707FA4"/>
<path d="M61.4464 7.36414C62.3193 7.42711 62.9599 6.77649 62.9 5.81726C62.963 4.94432 62.3124 4.30379 61.3531 4.36363C51.9832 4.38452 43.1184 10.9972 39.548 20.7791C39.4617 20.9019 35.6558 31.8024 25.7329 45.9264C25.2152 46.6634 25.3614 47.4998 26.0983 48.0175C26.8352 48.5352 27.6716 48.3891 28.1893 47.6522C38.371 33.1597 42.2997 22.3455 42.4358 21.8907C45.6478 13.1411 53.2813 7.49775 61.4464 7.36414Z" fill="#707FA4"/>
<path d="M55.4611 61.3084C55.9788 60.5715 55.8327 59.7351 55.0958 59.2173C54.4817 58.7859 53.5225 58.8458 53.0048 59.5827C52.3145 60.5652 51.4516 61.7934 50.4162 63.2672C48.9494 65.3551 47.3465 67.8977 46.1882 69.2853C45.6705 70.0222 45.8166 70.8586 46.5535 71.3763C47.1676 71.8077 48.1269 71.7479 48.6446 71.011C49.7663 69.4143 51.492 66.958 53.0451 64.7473C53.908 63.5191 54.8571 62.1681 55.4611 61.3084Z" fill="#707FA4"/>
<path d="M68.3279 17.1509C66.9769 16.2018 65.5762 15.5845 64.0028 15.213C57.8324 13.8129 51.7023 17.5775 49.7978 23.9438C48.7957 27.4589 39.1784 42.7147 28.9105 57.33C28.3927 58.0669 28.5389 58.9033 29.2758 59.421C30.0127 59.9387 30.8491 59.7926 31.3668 59.0557C40.5993 45.9142 51.3384 29.0618 52.649 24.8463C54.0591 19.967 58.7488 17.2083 63.346 18.2368C64.4645 18.4723 65.6196 18.917 66.6022 19.6072C69.5498 21.6781 71.0438 25.2958 70.1646 28.8972C68.7016 35.9406 62.4128 46.1974 57.4814 53.739C57.0499 54.3531 57.2326 55.3986 57.8467 55.8301C58.5836 56.3478 59.5063 56.0788 59.9377 55.4647C65.0783 47.8866 71.5031 37.175 73.1021 29.6769C74.1803 24.7478 72.2581 19.912 68.3279 17.1509Z" fill="#707FA4"/>
</mask>
<g mask="url(#mask0_812_66607)">
<rect opacity="0.3" x="-4.32446" y="-2.29492" width="131.873" height="131.873" fill="#0669F7"/>
</g>
</svg>
