<svg width="33" height="33" viewBox="0 0 33 33" fill="none" xmlns="http://www.w3.org/2000/svg">
<path d="M11.5371 25.4237V11.4537C11.5371 10.9037 11.7021 10.3675 12.0046 9.91375L15.7584 4.33125C16.3496 3.4375 17.8209 2.805 19.0721 3.2725C20.4196 3.72625 21.3134 5.23875 21.0246 6.58625L20.3096 11.0825C20.2546 11.495 20.3646 11.8662 20.5984 12.155C20.8321 12.4162 21.1759 12.5812 21.5471 12.5812H27.1984C28.2846 12.5812 29.2196 13.0212 29.7696 13.7912C30.2921 14.5337 30.3884 15.4962 30.0446 16.4725L26.6621 26.7712C26.2359 28.4762 24.3796 29.865 22.5371 29.865H17.1746C16.2534 29.865 14.9609 29.5487 14.3696 28.9575L12.6096 27.5962C11.9359 27.0875 11.5371 26.2762 11.5371 25.4237Z" fill="#577847"/>
<path d="M7.16375 8.77246H5.7475C3.61625 8.77246 2.75 9.59746 2.75 11.6325V25.465C2.75 27.5 3.61625 28.325 5.7475 28.325H7.16375C9.295 28.325 10.1612 27.5 10.1612 25.465V11.6325C10.1612 9.59746 9.295 8.77246 7.16375 8.77246Z" fill="#577847"/>
</svg>
