<svg width="33" height="33" viewBox="0 0 33 33" fill="none" xmlns="http://www.w3.org/2000/svg">
<path d="M11.5361 25.4247V11.4547C11.5361 10.9047 11.7011 10.3685 12.0036 9.91472L15.7574 4.33222C16.3486 3.43847 17.8199 2.80597 19.0711 3.27347C20.4186 3.72722 21.3124 5.23972 21.0236 6.58722L20.3086 11.0835C20.2536 11.496 20.3636 11.8672 20.5974 12.156C20.8311 12.4172 21.1749 12.5822 21.5461 12.5822H27.1974C28.2836 12.5822 29.2186 13.0222 29.7686 13.7922C30.2911 14.5347 30.3874 15.4972 30.0436 16.4735L26.6611 26.7722C26.2349 28.4772 24.3786 29.866 22.5361 29.866H17.1736C16.2524 29.866 14.9599 29.5497 14.3686 28.9585L12.6086 27.5972C11.9349 27.0885 11.5361 26.2772 11.5361 25.4247Z" fill="#44A887"/>
<path d="M7.16375 8.77344H5.7475C3.61625 8.77344 2.75 9.59844 2.75 11.6334V25.4659C2.75 27.5009 3.61625 28.3259 5.7475 28.3259H7.16375C9.295 28.3259 10.1612 27.5009 10.1612 25.4659V11.6334C10.1612 9.59844 9.295 8.77344 7.16375 8.77344Z" fill="#44A887"/>
</svg>
