<svg width="159" height="34" viewBox="0 0 159 34" fill="none" xmlns="http://www.w3.org/2000/svg">
<path d="M14 25.52V8.336H21.008C23.968 8.336 26.344 9.128 28.136 10.712C29.944 12.28 30.848 14.352 30.848 16.928C30.848 19.504 29.944 21.584 28.136 23.168C26.344 24.736 23.968 25.52 21.008 25.52H14ZM18.896 21.704H21.008C22.448 21.704 23.6 21.272 24.464 20.408C25.344 19.544 25.784 18.384 25.784 16.928C25.784 15.472 25.344 14.312 24.464 13.448C23.6 12.584 22.448 12.152 21.008 12.152H18.896V21.704Z" fill="#231E57"/>
<path d="M41.9135 25.88C39.0175 25.88 36.6815 25.072 34.9055 23.456C33.1455 21.824 32.2655 19.648 32.2655 16.928C32.2655 14.208 33.1455 12.04 34.9055 10.424C36.6815 8.808 39.0175 8 41.9135 8C44.7935 8 47.1135 8.808 48.8735 10.424C50.6495 12.04 51.5375 14.208 51.5375 16.928C51.5375 19.648 50.6495 21.824 48.8735 23.456C47.1135 25.072 44.7935 25.88 41.9135 25.88ZM38.6015 20.408C39.4495 21.288 40.5535 21.728 41.9135 21.728C43.2735 21.728 44.3695 21.288 45.2015 20.408C46.0495 19.528 46.4735 18.368 46.4735 16.928C46.4735 15.488 46.0495 14.328 45.2015 13.448C44.3695 12.568 43.2735 12.128 41.9135 12.128C40.5535 12.128 39.4495 12.568 38.6015 13.448C37.7535 14.328 37.3295 15.488 37.3295 16.928C37.3295 18.368 37.7535 19.528 38.6015 20.408Z" fill="#231E57"/>
<path d="M53.6328 25.52V8.336H60.6408C63.6008 8.336 65.9768 9.128 67.7688 10.712C69.5768 12.28 70.4808 14.352 70.4808 16.928C70.4808 19.504 69.5768 21.584 67.7688 23.168C65.9768 24.736 63.6008 25.52 60.6408 25.52H53.6328ZM58.5288 21.704H60.6408C62.0808 21.704 63.2328 21.272 64.0968 20.408C64.9768 19.544 65.4168 18.384 65.4168 16.928C65.4168 15.472 64.9768 14.312 64.0968 13.448C63.2328 12.584 62.0808 12.152 60.6408 12.152H58.5288V21.704Z" fill="#231E57"/>
<path d="M81.5463 25.88C78.6503 25.88 76.3143 25.072 74.5383 23.456C72.7783 21.824 71.8983 19.648 71.8983 16.928C71.8983 14.208 72.7783 12.04 74.5383 10.424C76.3143 8.808 78.6503 8 81.5463 8C84.4263 8 86.7463 8.808 88.5063 10.424C90.2823 12.04 91.1703 14.208 91.1703 16.928C91.1703 19.648 90.2823 21.824 88.5063 23.456C86.7463 25.072 84.4263 25.88 81.5463 25.88ZM78.2343 20.408C79.0823 21.288 80.1863 21.728 81.5463 21.728C82.9063 21.728 84.0023 21.288 84.8343 20.408C85.6823 19.528 86.1063 18.368 86.1063 16.928C86.1063 15.488 85.6823 14.328 84.8343 13.448C84.0023 12.568 82.9063 12.128 81.5463 12.128C80.1863 12.128 79.0823 12.568 78.2343 13.448C77.3863 14.328 76.9623 15.488 76.9623 16.928C76.9623 18.368 77.3863 19.528 78.2343 20.408Z" fill="#231E57"/>
<path d="M97.1855 25.52V12.488H91.8095V8.336H107.626V12.488H102.249V25.52H97.1855Z" fill="#231E57"/>
<path d="M106.388 25.52L111.788 8.336H119.228L124.604 25.52H119.396L118.58 22.904H112.412L111.596 25.52H106.388ZM113.42 19.304H117.596L115.628 12.632H115.388L113.42 19.304Z" fill="#231E57"/>
<path d="M126.243 25.52V8.336H134.211C136.451 8.336 138.227 8.888 139.539 9.992C140.867 11.096 141.531 12.576 141.531 14.432C141.531 16.288 140.867 17.768 139.539 18.872C138.211 19.976 136.419 20.528 134.163 20.528H131.283V25.52H126.243ZM131.283 16.88H133.635C134.483 16.88 135.163 16.656 135.675 16.208C136.203 15.76 136.467 15.168 136.467 14.432C136.467 13.696 136.203 13.104 135.675 12.656C135.163 12.208 134.483 11.984 133.635 11.984H131.283V16.88Z" fill="#231E57"/>
<path d="M144.136 25.112C143.672 25.56 143.072 25.784 142.336 25.784C141.6 25.784 140.992 25.56 140.512 25.112C140.048 24.648 139.816 24.064 139.816 23.36C139.816 22.656 140.048 22.08 140.512 21.632C140.992 21.168 141.6 20.936 142.336 20.936C143.072 20.936 143.672 21.168 144.136 21.632C144.616 22.08 144.856 22.656 144.856 23.36C144.856 24.064 144.616 24.648 144.136 25.112Z" fill="#231E57"/>
</svg>
