<svg width="33" height="33" viewBox="0 0 33 33" fill="none" xmlns="http://www.w3.org/2000/svg">
<path d="M24.145 2.75H8.81375C5.4725 2.75 2.75 5.4725 2.75 8.81375V17.7512V18.0262C2.75 21.3813 5.4725 24.09 8.81375 24.09H14.0938C14.85 24.09 15.4688 24.7087 15.4688 25.465V26.7987C15.4688 27.555 14.85 28.1737 14.0938 28.1737H10.7662C10.2025 28.1737 9.735 28.6413 9.735 29.205C9.735 29.7687 10.1887 30.25 10.7662 30.25H22.2475C22.8113 30.25 23.2788 29.7825 23.2788 29.2188C23.2788 28.655 22.8113 28.1875 22.2475 28.1875H18.92C18.1638 28.1875 17.545 27.5688 17.545 26.8125V25.4788C17.545 24.7225 18.1638 24.1038 18.92 24.1038H24.1587C27.5138 24.1038 30.2225 21.3813 30.2225 18.04V17.765V8.8275C30.2087 5.4725 27.4862 2.75 24.145 2.75Z" fill="#44A887"/>
</svg>
