<svg width="33" height="33" viewBox="0 0 33 33" fill="none" xmlns="http://www.w3.org/2000/svg">
<path d="M25.3965 2.75H19.8965C17.7811 2.75 16.0436 4.62785 15.8006 6.71979C15.7687 6.99409 15.9953 7.21875 16.2715 7.21875H22.6465C23.2102 7.21875 23.6777 7.68625 23.6777 8.25C23.6777 8.81375 23.2102 9.28125 22.6465 9.28125H16.2715C15.9953 9.28125 15.7715 9.50511 15.7715 9.78125V12.2188C15.7715 12.4949 15.9953 12.7188 16.2715 12.7188H19.6352C20.199 12.7188 20.6665 13.1862 20.6665 13.75C20.6665 14.3138 20.199 14.7812 19.6352 14.7812H16.2715C15.9953 14.7812 15.7715 15.0051 15.7715 15.2812V17.655C15.7715 17.9292 15.9923 18.1522 16.2665 18.155L22.6465 18.2188C23.224 18.2188 23.6777 18.6863 23.6777 19.2638C23.664 19.8275 23.2102 20.2812 22.6465 20.2812C22.6327 20.2812 22.6327 20.2812 22.6327 20.2812L16.2765 20.2176C15.9984 20.2148 15.7715 20.4394 15.7715 20.7175V23.2188C15.7715 23.4949 15.9953 23.7188 16.2715 23.7188H21.134C21.7115 23.7188 22.1652 24.1863 22.1652 24.75C22.1652 25.3137 21.7115 25.7812 21.134 25.7812H16.2715C15.9953 25.7812 15.7687 26.0059 15.8006 26.2802C16.0436 28.3722 17.7811 30.25 19.8965 30.25H25.3965C27.6652 30.25 29.5215 28.4075 29.5215 26.125V6.875C29.5215 4.5925 27.6652 2.75 25.3965 2.75Z" fill="#44A887"/>
<path d="M11.6048 6.80625V8.09375C11.6048 8.36989 11.3809 8.59375 11.1048 8.59375H3.97852C3.70237 8.59375 3.47852 8.36989 3.47852 8.09375V6.80625C3.47852 4.57875 5.30727 2.75 7.54851 2.75C9.77601 2.75 11.6048 4.57875 11.6048 6.80625Z" fill="#44A887"/>
<path d="M3.47852 24.6262C3.47852 25.245 3.73977 26.1938 4.06977 26.7163L5.18352 28.5863C6.48977 30.7588 8.60727 30.7588 9.89977 28.5863L11.0273 26.7163C11.3435 26.1938 11.6048 25.245 11.6048 24.6262V11.1562C11.6048 10.8801 11.3809 10.6562 11.1048 10.6562H3.97852C3.70237 10.6562 3.47852 10.8801 3.47852 11.1563V24.6262Z" fill="#44A887"/>
</svg>
