<svg width="33" height="33" viewBox="0 0 33 33" fill="none" xmlns="http://www.w3.org/2000/svg">
<path d="M18.4667 20.625H6.05046C3.54796 20.625 1.95296 17.9437 3.16296 15.7437L6.36671 9.91373L9.36421 4.45498C10.6155 2.18623 13.888 2.18623 15.1392 4.45498L18.1505 9.91373L19.5942 12.54L21.3542 15.7437C22.5642 17.9437 20.9692 20.625 18.4667 20.625Z" fill="#577847"/>
<path d="M31.1428 22.0001C31.1428 26.9363 27.1416 30.9376 22.2053 30.9376C18.0116 30.9376 14.5053 28.0638 13.5291 24.1588C13.4328 23.7463 13.7491 23.3751 14.1753 23.3751H19.3591C21.2703 23.3751 23.0028 22.3851 23.9791 20.7488C24.9416 19.0988 24.9828 17.1188 24.0478 15.4413L23.3603 14.1763C23.0991 13.7088 23.4703 13.1451 23.9928 13.2413C28.0628 14.0663 31.1428 17.6688 31.1428 22.0001Z" fill="#577847"/>
</svg>
