<svg width="33" height="33" viewBox="0 0 33 33" fill="none" xmlns="http://www.w3.org/2000/svg">
<path d="M27.994 17.5037C27.4853 17.5037 27.059 17.1187 27.004 16.6099C26.674 13.5849 25.0515 10.8624 22.549 9.12992C22.0953 8.81367 21.9853 8.19492 22.3015 7.74117C22.6178 7.28742 23.2365 7.17742 23.6903 7.49367C26.674 9.56992 28.599 12.8149 28.9978 16.4037C29.0528 16.9537 28.654 17.4487 28.104 17.5037C28.0628 17.5037 28.0353 17.5037 27.994 17.5037Z" fill="#577847"/>
<path d="M5.14155 17.5724C5.11405 17.5724 5.0728 17.5724 5.0453 17.5724C4.4953 17.5174 4.09655 17.0224 4.15155 16.4724C4.5228 12.8837 6.4203 9.63866 9.37655 7.54866C9.81655 7.23241 10.4491 7.34241 10.7653 7.78241C11.0816 8.23616 10.9716 8.85491 10.5316 9.17116C8.05655 10.9312 6.4478 13.6537 6.1453 16.6649C6.0903 17.1874 5.6503 17.5724 5.14155 17.5724Z" fill="#577847"/>
<path d="M21.9853 29.0125C20.2941 29.8237 18.4791 30.2362 16.5816 30.2362C14.6016 30.2362 12.7179 29.7962 10.9579 28.9025C10.4629 28.6687 10.2704 28.0637 10.5179 27.5687C10.7516 27.0737 11.3566 26.8812 11.8516 27.115C12.7179 27.555 13.6391 27.8575 14.5741 28.0362C15.8391 28.2837 17.1316 28.2975 18.3966 28.0775C19.3316 27.9125 20.2529 27.6237 21.1054 27.2112C21.6141 26.9775 22.2191 27.17 22.4391 27.6787C22.6866 28.1737 22.4941 28.7787 21.9853 29.0125Z" fill="#577847"/>
<path d="M16.5689 2.76367C14.4377 2.76367 12.6914 4.49617 12.6914 6.64117C12.6914 8.78617 14.4239 10.5187 16.5689 10.5187C18.7139 10.5187 20.4464 8.78617 20.4464 6.64117C20.4464 4.49617 18.7139 2.76367 16.5689 2.76367Z" fill="#577847"/>
<path d="M6.94391 19.0713C4.81266 19.0713 3.06641 20.8038 3.06641 22.9488C3.06641 25.0938 4.79891 26.8263 6.94391 26.8263C9.08891 26.8263 10.8214 25.0938 10.8214 22.9488C10.8214 20.8038 9.07516 19.0713 6.94391 19.0713Z" fill="#577847"/>
<path d="M26.0572 19.0713C23.9259 19.0713 22.1797 20.8038 22.1797 22.9488C22.1797 25.0938 23.9122 26.8263 26.0572 26.8263C28.2022 26.8263 29.9347 25.0938 29.9347 22.9488C29.9347 20.8038 28.2022 19.0713 26.0572 19.0713Z" fill="#577847"/>
</svg>
