<svg width="33" height="33" viewBox="0 0 33 33" fill="none" xmlns="http://www.w3.org/2000/svg">
<path d="M26.8269 8.04375L18.6594 3.3275C17.3256 2.5575 15.6756 2.5575 14.3281 3.3275L6.17437 8.04375C4.84062 8.81375 4.01562 10.2438 4.01562 11.7975V21.2025C4.01562 22.7425 4.84062 24.1725 6.17437 24.9562L14.3419 29.6725C15.6756 30.4425 17.3256 30.4425 18.6731 29.6725L26.8406 24.9562C28.1744 24.1862 28.9994 22.7563 28.9994 21.2025V11.7975C28.9856 10.2438 28.1606 8.8275 26.8269 8.04375ZM16.5006 10.0925C18.2744 10.0925 19.7044 11.5225 19.7044 13.2963C19.7044 15.07 18.2744 16.5 16.5006 16.5C14.7269 16.5 13.2969 15.07 13.2969 13.2963C13.2969 11.5363 14.7269 10.0925 16.5006 10.0925ZM20.1856 22.9075H12.8156C11.7019 22.9075 11.0556 21.67 11.6744 20.7488C12.6094 19.36 14.4244 18.425 16.5006 18.425C18.5769 18.425 20.3919 19.36 21.3269 20.7488C21.9456 21.6562 21.2856 22.9075 20.1856 22.9075Z" fill="#577847"/>
</svg>
